# xmcd CD database file
#
# Track frame offsets:
#	150
#	10777
#	63572
#	83662
#	106420
#	113917
#	134277
#
# Disc length: 2423 seconds
#
# Revision: 1
# Processed by: cddbd v1.5.1PL0 Copyright (c) Steve Scherf et al.
# Submitted via: CDex 1.51
#
DISCID=53097507
DTITLE=Enigma - MCMXC a.D.
DYEAR=1991
DGENRE=New Age
TTITLE0=The Voice Of Enigma
TTITLE1=Principles Of Lust
TTITLE2=Callas Went Away
TTITLE3=Mea Culpa
TTITLE4=The Voice And The Snake
TTITLE5=Knocking On Forbidden Doors
TTITLE6=Back To The Rivers Of Belief
EXTD=YEAR: 1991
EXTT0=
EXTT1=a. Sadeness 4.08 b. Find Love 4.46 c. Sadeness (Reprise) 2.49\n
EXTT2=
EXTT3=
EXTT4=
EXTT5=
EXTT6=a. Way To Eternity 2.18 b. Hallelujah 4.17 c. The Rivers Of Belief 4.01\n
PLAYORDER=
